<?xml version="1.0" encoding="utf-8"?>
<!-- Generator: Adobe Illustrator 16.0.0, SVG Export Plug-In . SVG Version: 6.00 Build 0)  -->
<!DOCTYPE svg PUBLIC "-//W3C//DTD SVG 1.1//EN" "http://www.w3.org/Graphics/SVG/1.1/DTD/svg11.dtd">
<svg version="1.1" id="Layer_1" xmlns="http://www.w3.org/2000/svg" xmlns:xlink="http://www.w3.org/1999/xlink" x="0px" y="0px"
	 width="832.349px" height="5px" viewBox="0 0 832.349 5" enable-background="new 0 0 832.349 5" xml:space="preserve">
<path opacity="0.5" fill="#72431C" d="M17.92,2.5c0,1.381-1.161,2.5-2.594,2.5H2.594C1.161,5,0,3.881,0,2.5l0,0
	C0,1.119,1.161,0,2.594,0h12.732C16.759,0,17.92,1.119,17.92,2.5L17.92,2.5z"/>
<path opacity="0.5" fill="#72431C" d="M45.948,2.5c0,1.381-1.161,2.5-2.594,2.5H30.621c-1.433,0-2.594-1.119-2.594-2.5l0,0
	c0-1.381,1.161-2.5,2.594-2.5h12.733C44.787,0,45.948,1.119,45.948,2.5L45.948,2.5z"/>
<path opacity="0.5" fill="#72431C" d="M73.976,2.5c0,1.381-1.161,2.5-2.594,2.5H58.649c-1.433,0-2.594-1.119-2.594-2.5l0,0
	c0-1.381,1.161-2.5,2.594-2.5h12.733C72.814,0,73.976,1.119,73.976,2.5L73.976,2.5z"/>
<path opacity="0.5" fill="#72431C" d="M102.003,2.5c0,1.381-1.161,2.5-2.594,2.5H86.677c-1.433,0-2.594-1.119-2.594-2.5l0,0
	c0-1.381,1.161-2.5,2.594-2.5H99.41C100.842,0,102.003,1.119,102.003,2.5L102.003,2.5z"/>
<path opacity="0.5" fill="#72431C" d="M130.031,2.5c0,1.381-1.161,2.5-2.594,2.5h-12.732c-1.433,0-2.594-1.119-2.594-2.5l0,0
	c0-1.381,1.161-2.5,2.594-2.5h12.732C128.87,0,130.031,1.119,130.031,2.5L130.031,2.5z"/>
<path opacity="0.5" fill="#72431C" d="M158.06,2.5c0,1.381-1.161,2.5-2.594,2.5h-12.733c-1.433,0-2.594-1.119-2.594-2.5l0,0
	c0-1.381,1.161-2.5,2.594-2.5h12.733C156.898,0,158.06,1.119,158.06,2.5L158.06,2.5z"/>
<path opacity="0.5" fill="#72431C" d="M186.087,2.5c0,1.381-1.161,2.5-2.594,2.5h-12.732c-1.433,0-2.594-1.119-2.594-2.5l0,0
	c0-1.381,1.161-2.5,2.594-2.5h12.732C184.926,0,186.087,1.119,186.087,2.5L186.087,2.5z"/>
<path opacity="0.5" fill="#72431C" d="M214.114,2.5c0,1.381-1.161,2.5-2.594,2.5h-12.732c-1.433,0-2.594-1.119-2.594-2.5l0,0
	c0-1.381,1.161-2.5,2.594-2.5h12.732C212.953,0,214.114,1.119,214.114,2.5L214.114,2.5z"/>
<path opacity="0.5" fill="#72431C" d="M242.143,2.5c0,1.381-1.161,2.5-2.594,2.5h-12.732c-1.433,0-2.594-1.119-2.594-2.5l0,0
	c0-1.381,1.161-2.5,2.594-2.5h12.732C240.981,0,242.143,1.119,242.143,2.5L242.143,2.5z"/>
<path opacity="0.5" fill="#72431C" d="M270.171,2.5c0,1.381-1.161,2.5-2.594,2.5h-12.733c-1.433,0-2.594-1.119-2.594-2.5l0,0
	c0-1.381,1.161-2.5,2.594-2.5h12.733C269.01,0,270.171,1.119,270.171,2.5L270.171,2.5z"/>
<path opacity="0.5" fill="#72431C" d="M298.198,2.5c0,1.381-1.162,2.5-2.594,2.5h-12.733c-1.433,0-2.594-1.119-2.594-2.5l0,0
	c0-1.381,1.161-2.5,2.594-2.5h12.733C297.036,0,298.198,1.119,298.198,2.5L298.198,2.5z"/>
<path opacity="0.5" fill="#72431C" d="M326.226,2.5c0,1.381-1.161,2.5-2.594,2.5h-12.733c-1.432,0-2.594-1.119-2.594-2.5l0,0
	c0-1.381,1.162-2.5,2.594-2.5h12.733C325.064,0,326.226,1.119,326.226,2.5L326.226,2.5z"/>
<path opacity="0.5" fill="#72431C" d="M354.254,2.5c0,1.381-1.161,2.5-2.594,2.5h-12.732c-1.433,0-2.594-1.119-2.594-2.5l0,0
	c0-1.381,1.161-2.5,2.594-2.5h12.732C353.093,0,354.254,1.119,354.254,2.5L354.254,2.5z"/>
<path opacity="0.5" fill="#72431C" d="M382.281,2.5c0,1.381-1.16,2.5-2.594,2.5h-12.732c-1.434,0-2.594-1.119-2.594-2.5l0,0
	c0-1.381,1.16-2.5,2.594-2.5h12.732C381.121,0,382.281,1.119,382.281,2.5L382.281,2.5z"/>
<path opacity="0.5" fill="#72431C" d="M410.309,2.5c0,1.381-1.16,2.5-2.594,2.5h-12.732c-1.432,0-2.594-1.119-2.594-2.5l0,0
	c0-1.381,1.162-2.5,2.594-2.5h12.732C409.148,0,410.309,1.119,410.309,2.5L410.309,2.5z"/>
<path opacity="0.5" fill="#72431C" d="M439.96,2.5c0,1.381-1.161,2.5-2.594,2.5h-12.732c-1.433,0-2.594-1.119-2.594-2.5l0,0
	c0-1.381,1.161-2.5,2.594-2.5h12.732C438.799,0,439.96,1.119,439.96,2.5L439.96,2.5z"/>
<path opacity="0.5" fill="#72431C" d="M467.988,2.5c0,1.381-1.161,2.5-2.594,2.5h-12.733c-1.433,0-2.594-1.119-2.594-2.5l0,0
	c0-1.381,1.161-2.5,2.594-2.5h12.733C466.827,0,467.988,1.119,467.988,2.5L467.988,2.5z"/>
<path opacity="0.5" fill="#72431C" d="M496.016,2.5c0,1.381-1.161,2.5-2.594,2.5h-12.732c-1.434,0-2.594-1.119-2.594-2.5l0,0
	c0-1.381,1.16-2.5,2.594-2.5h12.732C494.854,0,496.016,1.119,496.016,2.5L496.016,2.5z"/>
<path opacity="0.5" fill="#72431C" d="M524.043,2.5c0,1.381-1.16,2.5-2.594,2.5h-12.732c-1.433,0-2.594-1.119-2.594-2.5l0,0
	c0-1.381,1.161-2.5,2.594-2.5h12.732C522.883,0,524.043,1.119,524.043,2.5L524.043,2.5z"/>
<path opacity="0.5" fill="#72431C" d="M552.071,2.5c0,1.381-1.161,2.5-2.594,2.5h-12.732c-1.433,0-2.594-1.119-2.594-2.5l0,0
	c0-1.381,1.161-2.5,2.594-2.5h12.732C550.91,0,552.071,1.119,552.071,2.5L552.071,2.5z"/>
<path opacity="0.5" fill="#72431C" d="M580.1,2.5c0,1.381-1.161,2.5-2.594,2.5h-12.733c-1.433,0-2.594-1.119-2.594-2.5l0,0
	c0-1.381,1.161-2.5,2.594-2.5h12.733C578.938,0,580.1,1.119,580.1,2.5L580.1,2.5z"/>
<path opacity="0.5" fill="#72431C" d="M608.127,2.5c0,1.381-1.161,2.5-2.594,2.5h-12.732c-1.433,0-2.594-1.119-2.594-2.5l0,0
	c0-1.381,1.161-2.5,2.594-2.5h12.732C606.966,0,608.127,1.119,608.127,2.5L608.127,2.5z"/>
<path opacity="0.5" fill="#72431C" d="M636.154,2.5c0,1.381-1.161,2.5-2.594,2.5h-12.732c-1.433,0-2.594-1.119-2.594-2.5l0,0
	c0-1.381,1.161-2.5,2.594-2.5h12.732C634.993,0,636.154,1.119,636.154,2.5L636.154,2.5z"/>
<path opacity="0.5" fill="#72431C" d="M664.183,2.5c0,1.381-1.161,2.5-2.594,2.5h-12.732c-1.433,0-2.594-1.119-2.594-2.5l0,0
	c0-1.381,1.161-2.5,2.594-2.5h12.732C663.021,0,664.183,1.119,664.183,2.5L664.183,2.5z"/>
<path opacity="0.5" fill="#72431C" d="M692.211,2.5c0,1.381-1.161,2.5-2.594,2.5h-12.733c-1.433,0-2.594-1.119-2.594-2.5l0,0
	c0-1.381,1.161-2.5,2.594-2.5h12.733C691.05,0,692.211,1.119,692.211,2.5L692.211,2.5z"/>
<path opacity="0.5" fill="#72431C" d="M720.238,2.5c0,1.381-1.162,2.5-2.594,2.5h-12.733c-1.433,0-2.594-1.119-2.594-2.5l0,0
	c0-1.381,1.161-2.5,2.594-2.5h12.733C719.076,0,720.238,1.119,720.238,2.5L720.238,2.5z"/>
<path opacity="0.5" fill="#72431C" d="M748.266,2.5c0,1.381-1.161,2.5-2.594,2.5h-12.733c-1.432,0-2.594-1.119-2.594-2.5l0,0
	c0-1.381,1.162-2.5,2.594-2.5h12.733C747.104,0,748.266,1.119,748.266,2.5L748.266,2.5z"/>
<path opacity="0.5" fill="#72431C" d="M776.294,2.5c0,1.381-1.161,2.5-2.594,2.5h-12.732c-1.433,0-2.594-1.119-2.594-2.5l0,0
	c0-1.381,1.161-2.5,2.594-2.5H773.7C775.133,0,776.294,1.119,776.294,2.5L776.294,2.5z"/>
<path opacity="0.5" fill="#72431C" d="M804.321,2.5c0,1.381-1.16,2.5-2.594,2.5h-12.732c-1.434,0-2.594-1.119-2.594-2.5l0,0
	c0-1.381,1.16-2.5,2.594-2.5h12.732C803.161,0,804.321,1.119,804.321,2.5L804.321,2.5z"/>
<path opacity="0.5" fill="#72431C" d="M832.349,2.5c0,1.381-1.16,2.5-2.594,2.5h-12.732c-1.432,0-2.594-1.119-2.594-2.5l0,0
	c0-1.381,1.162-2.5,2.594-2.5h12.732C831.188,0,832.349,1.119,832.349,2.5L832.349,2.5z"/>
</svg>
