<?xml version="1.0" encoding="utf-8"?>
<!-- Generator: Adobe Illustrator 16.0.0, SVG Export Plug-In . SVG Version: 6.00 Build 0)  -->
<!DOCTYPE svg PUBLIC "-//W3C//DTD SVG 1.1//EN" "http://www.w3.org/Graphics/SVG/1.1/DTD/svg11.dtd">
<svg version="1.1" id="Layer_1" xmlns="http://www.w3.org/2000/svg" xmlns:xlink="http://www.w3.org/1999/xlink" x="0px" y="0px"
	 width="2000px" height="1000px" viewBox="0 0 2000 1000" enable-background="new 0 0 2000 1000" xml:space="preserve">
<g>
	<rect y="40" fill="#B7AD70" width="2000" height="88.557"/>
	<rect fill="#162863" width="2000" height="40"/>
	<path fill="#B7AD70" d="M193.123,385.311c-10.915,0-19.765-8.798-19.867-19.688H0v112.412h2000V365.623H212.99
		C212.888,376.512,204.037,385.311,193.123,385.311z"/>
	<path fill="#B7AD70" d="M1150.96,924.631c-6.282,0-11.873-2.921-15.516-7.471H0V1000h2000v-82.84h-833.524
		C1162.833,921.71,1157.241,924.631,1150.96,924.631z"/>
	<path fill="#AA7D1A" d="M0,494.909v48.285h1402.646c-52.884,8.326-94.188,33.465-106.555,65.159
		c-2.492,6.388-3.81,13.041-3.81,19.877c0,22.305,14.031,42.667,37.146,58.176c7.501,5.033,15.955,9.557,25.202,13.467H0v86.969
		h2000v-86.969h-472.683c9.248-3.91,17.701-8.434,25.202-13.467c23.114-15.509,37.146-35.871,37.146-58.176
		c0-6.836-1.317-13.489-3.81-19.877c-12.367-31.694-53.67-56.833-106.557-65.159H2000v-48.285v-16.874H0V494.909z"/>
	<path fill="#4C0F0F" d="M1329.428,686.406c-23.114-15.509-37.146-35.871-37.146-58.176c0-6.836,1.317-13.489,3.81-19.877
		c12.367-31.694,53.671-56.833,106.555-65.159H0v65.159v78.053v13.467h1354.63C1345.383,695.963,1336.929,691.439,1329.428,686.406z
		 M696.877,628.23c0,10.978-8.899,19.877-19.877,19.877c-10.979,0-19.877-8.899-19.877-19.877c0-10.979,8.898-19.877,19.877-19.877
		C687.978,608.354,696.877,617.252,696.877,628.23z"/>
	<path fill="#4C0F0F" d="M1585.855,608.354c2.492,6.388,3.81,13.041,3.81,19.877c0,22.305-14.031,42.667-37.146,58.176
		c-7.501,5.033-15.954,9.557-25.202,13.467H2000v-13.467v-78.053v-65.159h-520.701
		C1532.186,551.521,1573.488,576.659,1585.855,608.354z M1904.232,549.68c10.978,0,19.877,8.898,19.877,19.877
		c0,10.978-8.899,19.877-19.877,19.877c-10.979,0-19.877-8.899-19.877-19.877C1884.355,558.578,1893.254,549.68,1904.232,549.68z"/>
	<path fill="#4C0F0F" d="M0,816.725v52.957v47.479h1135.444c-2.724-3.401-4.361-7.71-4.361-12.406
		c0-10.979,8.898-19.877,19.877-19.877c10.978,0,19.877,8.898,19.877,19.877c0,4.696-1.638,9.005-4.361,12.406H2000v-47.479v-52.957
		v-29.883H0V816.725z M226.877,884.877c-9.363,0-17.191-6.481-19.299-15.195C207.214,868.178,207,866.615,207,865
		c0-10.979,8.898-19.877,19.877-19.877c10.978,0,19.877,8.898,19.877,19.877c0,1.615-0.214,3.178-0.578,4.682
		C244.068,878.396,236.239,884.877,226.877,884.877z"/>
	<path fill="#4C0F0F" d="M0,130.318v104.987v23.569h706.146c-0.225-1.198-0.356-2.429-0.356-3.692
		c0-10.979,8.898-19.877,19.877-19.877c10.978,0,19.877,8.898,19.877,19.877c0,1.263-0.131,2.494-0.356,3.692H2000v-23.569V130.318
		v-1.762H0V130.318z M1800.109,165.068c0,10.978-8.899,19.877-19.877,19.877c-10.979,0-19.877-8.899-19.877-19.877
		c0-10.979,8.898-19.877,19.877-19.877C1791.21,145.191,1800.109,154.09,1800.109,165.068z M1409.974,184.945
		c0,10.978-8.899,19.877-19.877,19.877c-10.979,0-19.877-8.899-19.877-19.877c0-10.979,8.898-19.877,19.877-19.877
		C1401.074,165.068,1409.974,173.967,1409.974,184.945z M484.877,165.068c0,10.978-8.899,19.877-19.877,19.877
		c-10.979,0-19.877-8.899-19.877-19.877c0-10.979,8.898-19.877,19.877-19.877C475.978,145.191,484.877,154.09,484.877,165.068z"/>
	<circle fill="#AA7D1A" cx="1390.097" cy="184.945" r="19.877"/>
	<circle fill="#AA7D1A" cx="1780.232" cy="165.068" r="19.877"/>
	<circle fill="#AA7D1A" cx="1904.232" cy="569.557" r="19.877"/>
	<path fill="#AA7D1A" d="M1150.96,924.631c6.281,0,11.873-2.921,15.516-7.471c2.724-3.401,4.361-7.71,4.361-12.406
		c0-10.979-8.899-19.877-19.877-19.877c-10.979,0-19.877,8.898-19.877,19.877c0,4.696,1.638,9.005,4.361,12.406
		C1139.087,921.71,1144.678,924.631,1150.96,924.631z"/>
	<circle fill="#AA7D1A" cx="465" cy="165.068" r="19.877"/>
	<path fill="#AA7D1A" d="M745.544,255.183c0-10.979-8.899-19.877-19.877-19.877c-10.979,0-19.877,8.898-19.877,19.877
		c0,1.263,0.131,2.494,0.356,3.692H0v105.717v1.031h173.256c0.103,10.889,8.953,19.688,19.867,19.688
		c10.914,0,19.765-8.798,19.867-19.688H2000v-1.031V258.875H745.188C745.413,257.677,745.544,256.446,745.544,255.183z"/>
	<path fill="#AA7D1A" d="M226.877,845.123C215.898,845.123,207,854.021,207,865c0,1.615,0.214,3.178,0.578,4.682
		c2.108,8.714,9.937,15.195,19.299,15.195c9.362,0,17.191-6.481,19.299-15.195c0.364-1.504,0.578-3.066,0.578-4.682
		C246.754,854.021,237.854,845.123,226.877,845.123z"/>
	<circle fill="#AA7D1A" cx="677" cy="628.23" r="19.877"/>
</g>
</svg>
