<?xml version="1.0" encoding="utf-8"?>
<!-- Generator: Adobe Illustrator 16.0.0, SVG Export Plug-In . SVG Version: 6.00 Build 0)  -->
<!DOCTYPE svg PUBLIC "-//W3C//DTD SVG 1.1//EN" "http://www.w3.org/Graphics/SVG/1.1/DTD/svg11.dtd">
<svg version="1.1" id="Layer_1" xmlns="http://www.w3.org/2000/svg" xmlns:xlink="http://www.w3.org/1999/xlink" x="0px" y="0px"
	 width="2000px" height="1000px" viewBox="-500 0 2000 1000" enable-background="new -500 0 2000 1000" xml:space="preserve">
<rect x="-500" fill="#911919" width="2000" height="1000"/>
<g>
	<path fill="#4C0F0F" d="M397.423,89.359c0,6.323-5.128,11.449-11.449,11.449H224.261c-6.323,0-11.449-5.126-11.449-11.449v-1.43
		c0-6.323,5.126-11.449,11.449-11.449h161.713c6.321,0,11.449,5.126,11.449,11.449V89.359z"/>
	<path fill="#4C0F0F" d="M679.649,252.236c0,13.202-10.701,23.904-23.902,23.904H318.13c-13.202,0-23.904-10.702-23.904-23.904
		v-2.985c0-13.201,10.702-23.903,23.904-23.903h337.617c13.201,0,23.902,10.702,23.902,23.903V252.236z"/>
</g>
<path fill="#4C0F0F" d="M-203.015,107.41c0,6.323-5.128,11.449-11.449,11.449h-161.713c-6.323,0-11.449-5.126-11.449-11.449v-1.43
	c0-6.323,5.126-11.449,11.449-11.449h161.713c6.321,0,11.449,5.126,11.449,11.449V107.41z"/>
<path fill="#4C0F0F" d="M79.212,270.287c0,13.202-10.701,23.904-23.902,23.904h-337.617c-13.202,0-23.904-10.702-23.904-23.904
	v-2.985c0-13.201,10.702-23.903,23.904-23.903H55.31c13.201,0,23.902,10.702,23.902,23.903V270.287z"/>
<g>
	<path fill="#4C0F0F" d="M1462.162,313.522c0,18.353-14.879,33.23-33.232,33.23H959.557c-18.354,0-33.231-14.879-33.231-33.23v-4.15
		c0-18.354,14.878-33.231,33.231-33.231h469.373c18.354,0,33.232,14.879,33.232,33.231V313.522z"/>
	<path fill="#4C0F0F" d="M1068.8,109.971c0,9.123-7.395,16.519-16.518,16.519H818.988c-9.122,0-16.518-7.396-16.518-16.519v-2.063
		c0-9.122,7.396-16.519,16.518-16.519h233.295c9.123,0,16.518,7.396,16.518,16.519L1068.8,109.971L1068.8,109.971z"/>
</g>
<g>
	<path fill="#4C0F0F" d="M353.479,839.088c0,18.353-14.879,33.23-33.232,33.23h-469.373c-18.354,0-33.232-14.879-33.232-33.23v-4.15
		c0-18.354,14.878-33.231,33.232-33.231h469.373c18.354,0,33.232,14.879,33.232,33.231V839.088z"/>
	<path fill="#4C0F0F" d="M-39.883,635.537c0,9.123-7.395,16.519-16.518,16.519h-233.294c-9.122,0-16.517-7.396-16.517-16.519v-2.063
		c0-9.122,7.395-16.519,16.517-16.519H-56.4c9.123,0,16.518,7.396,16.518,16.519L-39.883,635.537L-39.883,635.537z"/>
</g>
<path fill="#4C0F0F" d="M373.017,358.843c0,8.752-7.096,15.846-15.846,15.846h-223.81c-8.752,0-15.846-7.094-15.846-15.846v-1.979
	c0-8.751,7.094-15.846,15.846-15.846h223.811c8.75,0,15.846,7.094,15.846,15.846L373.017,358.843L373.017,358.843z"/>
<path fill="#4C0F0F" d="M-75.265,471.632c0,8.752-7.096,15.846-15.846,15.846h-223.81c-8.752,0-15.846-7.094-15.846-15.846v-1.979
	c0-8.751,7.094-15.846,15.846-15.846h223.811c8.75,0,15.846,7.094,15.846,15.846L-75.265,471.632L-75.265,471.632z"/>
<path fill="#4C0F0F" d="M786.178,865.571c0,11.424-9.262,20.684-20.683,20.684H473.363c-11.424,0-20.685-9.26-20.685-20.684v-2.583
	c0-11.423,9.261-20.684,20.685-20.684h292.132c11.421,0,20.683,9.261,20.683,20.684V865.571z"/>
<path fill="#4C0F0F" d="M1269.135,697.571c0,11.424-9.262,20.684-20.683,20.684H956.32c-11.424,0-20.685-9.26-20.685-20.684v-2.583
	c0-11.423,9.261-20.684,20.685-20.684h292.132c11.421,0,20.683,9.261,20.683,20.684V697.571z"/>
<path fill="#4C0F0F" d="M1413.135,895.585c0,11.424-9.262,20.684-20.683,20.684H1100.32c-11.424,0-20.685-9.26-20.685-20.684v-2.583
	c0-11.423,9.261-20.684,20.685-20.684h292.132c11.421,0,20.683,9.261,20.683,20.684V895.585z"/>
<path fill="#4C0F0F" d="M982.067,491.189c0,18.353-14.88,33.23-33.232,33.23H479.462c-18.354,0-33.231-14.879-33.231-33.23v-4.15
	c0-18.354,14.878-33.231,33.231-33.231h469.373c18.354,0,33.231,14.88,33.231,33.231L982.067,491.189L982.067,491.189z"/>
<circle fill="#4C0F0F" cx="723.77" cy="489.114" r="78.701"/>
<circle fill="#4C0F0F" cx="233.77" cy="640.956" r="54.701"/>
<circle fill="#4C0F0F" cx="-173.048" cy="634.506" r="78.701"/>
<circle fill="#4C0F0F" cx="-5.228" cy="227.011" r="100.521"/>
<rect x="-500" fill="#4BE4EF" width="2000" height="16.5"/>
</svg>
