<?xml version="1.0" encoding="utf-8"?>
<!-- Generator: Adobe Illustrator 16.0.0, SVG Export Plug-In . SVG Version: 6.00 Build 0)  -->
<!DOCTYPE svg PUBLIC "-//W3C//DTD SVG 1.1//EN" "http://www.w3.org/Graphics/SVG/1.1/DTD/svg11.dtd">
<svg version="1.1" id="Layer_1" xmlns="http://www.w3.org/2000/svg" xmlns:xlink="http://www.w3.org/1999/xlink" x="0px" y="0px"
	 width="2000px" height="1000px" viewBox="0 0 2000 1000" enable-background="new 0 0 2000 1000" xml:space="preserve">
<rect fill="#AFAFAF" width="2000" height="1000"/>
<path fill="#BCBCBC" d="M855.862,741.75c0,41.075-33.299,74.371-74.375,74.371c-41.076,0-74.373-33.296-74.373-74.371
	c0-41.078,33.296-74.376,74.373-74.376C822.563,667.374,855.862,700.672,855.862,741.75z"/>
<path fill="#BCBCBC" d="M1121.213,787.75c0,41.075-33.3,74.371-74.375,74.371c-41.076,0-74.373-33.296-74.373-74.371
	c0-41.078,33.296-74.376,74.373-74.376C1087.913,713.374,1121.213,746.672,1121.213,787.75z"/>
<path fill="#BCBCBC" d="M407.213,741.75c0,41.075-33.3,74.371-74.375,74.371c-41.076,0-74.373-33.296-74.373-74.371
	c0-41.078,33.296-74.376,74.373-74.376C373.913,667.374,407.213,700.672,407.213,741.75z"/>
<path fill="#BCBCBC" d="M233.213,176.377c0,41.075-33.3,74.371-74.375,74.371c-41.076,0-74.373-33.296-74.373-74.371
	c0-41.078,33.296-74.376,74.373-74.376C199.913,102.001,233.213,135.299,233.213,176.377z"/>
<path fill="#5B5B5B" d="M1277.681,311.891c0,69.836-56.618,126.451-126.454,126.451c-69.835,0-126.448-56.615-126.448-126.451
	c0-69.843,56.613-126.454,126.448-126.454C1221.063,185.438,1277.681,242.048,1277.681,311.891z"/>
<path fill="#BCBCBC" d="M1671.922,766.594c0,41.075-33.301,74.373-74.376,74.373c-41.074,0-74.372-33.298-74.372-74.373
	c0-41.079,33.298-74.375,74.372-74.375C1638.621,692.219,1671.922,725.515,1671.922,766.594z"/>
<path fill="#BCBCBC" d="M1683.587,146.751c0,41.075-33.301,74.374-74.376,74.374c-41.074,0-74.372-33.298-74.372-74.374
	c0-41.079,33.298-74.375,74.372-74.375C1650.286,72.376,1683.587,105.672,1683.587,146.751z"/>
<circle fill="#BCBCBC" cx="995.787" cy="420.382" r="39.077"/>
<circle fill="#BCBCBC" cx="1771.787" cy="350.968" r="39.077"/>
<circle fill="#BCBCBC" cx="1648.29" cy="553.333" r="39.077"/>
<circle fill="#BCBCBC" cx="792.833" cy="285.5" r="49.792"/>
<circle fill="#BCBCBC" cx="476.833" cy="176.375" r="49.792"/>
<circle fill="#BCBCBC" cx="123.034" cy="883.48" r="49.792"/>
<path fill="#BCBCBC" d="M1372.075,603.126c0,27.499-22.295,49.791-49.794,49.791c-27.498,0-49.79-22.292-49.79-49.791
	c0-27.502,22.292-49.794,49.79-49.794C1349.78,553.332,1372.075,575.624,1372.075,603.126z"/>
<circle fill="#BCBCBC" cx="1332.991" cy="296.762" r="20.168"/>
<circle fill="#BCBCBC" cx="1322.283" cy="176.375" r="20.168"/>
<circle fill="#BCBCBC" cx="1004.609" cy="126.583" r="20.169"/>
<circle fill="#BCBCBC" cx="992.139" cy="615.965" r="10.679"/>
<circle fill="#BCBCBC" cx="1810.864" cy="137.262" r="10.679"/>
<circle fill="#BCBCBC" cx="1343.67" cy="724.054" r="10.68"/>
<circle fill="#BCBCBC" cx="1302.114" cy="872.801" r="10.68"/>
<circle fill="#BCBCBC" cx="763.214" cy="469.544" r="20.17"/>
<circle fill="#BCBCBC" cx="537.353" cy="707.721" r="20.17"/>
<circle fill="#BCBCBC" cx="577.7" cy="883.481" r="20.17"/>
<circle fill="#BCBCBC" cx="497.006" cy="489.718" r="20.17"/>
<circle fill="#BCBCBC" cx="193" cy="420.382" r="20.17"/>
<circle fill="#BCBCBC" cx="387.039" cy="350.968" r="20.17"/>
<circle fill="#BCBCBC" cx="1096.633" cy="553.333" r="20.169"/>
<circle fill="#BCBCBC" cx="1841.716" cy="667.374" r="20.169"/>
<circle fill="#BCBCBC" cx="1503" cy="401.477" r="20.169"/>
</svg>
