<?xml version="1.0" encoding="utf-8"?>
<!-- Generator: Adobe Illustrator 16.0.0, SVG Export Plug-In . SVG Version: 6.00 Build 0)  -->
<!DOCTYPE svg PUBLIC "-//W3C//DTD SVG 1.1//EN" "http://www.w3.org/Graphics/SVG/1.1/DTD/svg11.dtd">
<svg version="1.1" id="Layer_1" xmlns="http://www.w3.org/2000/svg" xmlns:xlink="http://www.w3.org/1999/xlink" x="0px" y="0px"
	 width="2000px" height="1000px" viewBox="0 0 2000 1000" enable-background="new 0 0 2000 1000" xml:space="preserve">
<g>
	<rect fill="#CECE84" width="2000" height="1000"/>
	<polygon fill="#D8D7AB" points="0,904.57 0,679.561 676.99,1000 201.61,1000 	"/>
	<polygon fill="#D8D7AB" points="0,266.41 0,41.401 936.911,484.87 953.47,492.71 967.709,499.451 984.269,507.29 999.569,514.529 
		1030.37,529.109 1045.771,536.4 1076.549,550.971 1104.08,564 1134.879,578.58 1140.12,581.061 1170.932,595.641 2000,988.068 
		2000,1000 1549.821,1000 695.54,595.641 664.74,581.061 601.169,550.971 570.39,536.4 554.989,529.11 524.18,514.529 
		492.33,499.451 461.519,484.87 	"/>
	<polygon fill="#D8D7AB" points="286.629,0 761.99,0 1849.01,514.529 1879.818,529.109 1895.221,536.4 1926,550.97 2000,586 
		2000,811.01 1508.961,578.58 1478.16,564 1450.629,550.971 1419.85,536.4 1404.45,529.109 1373.641,514.529 1358.35,507.29 
		1327.551,492.71 	"/>
	<polygon fill="#D8D7AB" points="949.16,0 1424.519,0 2000,272.4 2000,497.41 1748.96,378.58 1718.161,364 1690.63,350.97 
		1659.85,336.4 1644.451,329.11 1613.641,314.53 1598.351,307.29 1567.551,292.71 	"/>
	<polygon fill="#D8D7AB" points="1588.08,0 2000,0 2000,194.98 	"/>
</g>
</svg>
