<?xml version="1.0" encoding="utf-8"?>
<!-- Generator: Adobe Illustrator 16.0.0, SVG Export Plug-In . SVG Version: 6.00 Build 0)  -->
<!DOCTYPE svg PUBLIC "-//W3C//DTD SVG 1.1//EN" "http://www.w3.org/Graphics/SVG/1.1/DTD/svg11.dtd">
<svg version="1.1" id="Capa_1" xmlns="http://www.w3.org/2000/svg" xmlns:xlink="http://www.w3.org/1999/xlink" x="0px" y="0px"
	 width="2000px" height="1000px" viewBox="-744 -244 2000 1000" enable-background="new -744 -244 2000 1000" xml:space="preserve">
<rect x="-744" y="-244" fill="#16A8A8" width="2000" height="1000"/>
<g>
	<g>
		<g>
			<path fill="#91DC5A" d="M-54.337,395.16c-1.889-1.277-33.442-29.664-41.275-39.721c-7.668-10.168-22.443-12.834-30.166-16.887
				c-7.777-4-59.108-20.943-71.44-12.166c-12.167,8.775-28.943,14.111-35.442,0c-6.388-14.223-9.611-16.221-18.611-18.221
				c-9-2.002-4.5-12.721-5.11-22.166c-0.723-9.5-5.834-19.609-12.277-12.834c-6.445,6.777-28.333,24.33-31.498,15.445
				c-3.223-8.725-18.723-45.111,4.499-51.942c23.109-6.669,42.441-2.724,48.274,3.389c5.777,5.998,10.223,22.942,17.388,20.887
				c7.111-2.057,3.222-14.945,5.777-25.609c2.557-10.724,19.389-24.944,27-39.723c7.723-14.942,9-23.663,18.61-27.72
				c9.778-4,14.888-9.389,23.889-16.166c9.054-6.776,23.109-12.777,28.387-16.221c5.166-3.446,28.276-14.888,35.943-12.834
				c7.72,2.056,12.832-0.666,6.442-12.11c-6.442-11.442-14.775-45.887-26.997-61.33c-12.223-15.444-13.556-19.61-19.333-34.332
				c-5.777-14.945-12.277-27.72-16.777-17.61c-4.5,10.11-14.109,23.609-19.275,10.777c-5.112-12.833-4.5-12.223-10.945-18.222
				c-6.387-6.055-11.61-7.444-20.554-10.167c-8.999-2.721-18,0.723-17.389,9.444c0.612,8.776-8.443,24.387-2.555,35.887
				c5.777,11.5,10.945,23.61,3.167,27.666c-7.667,4,0,28.333-7.667,27.61c-7.72-0.612-11.554,0.722-11.554-8.111
				c0-8.666,3.834-22.165-10.389-22.165c-14.11,0-22.498-7.388-32.776-14.887c-10.333-7.389-18.666-3.391-16.11-20.167
				c2.556-16.943-1.222-22.944,10.278-32.389c11.61-9.387,14.221-14.887,22.554-10.777c8.389,4.056,14.11,4.056,19.387-0.665
				c5.113-4.723,14.723-2.778,14.723-8.778c0-6.055-10.944-6.055-9.61-16.111c1.222-10.277,6.442-4.776,8.333-21.666
				c1.887-16.888-12.223-42.498-26.388-39.109c-14.223,3.333-35.999,22.944-40.499,14.109c-4.555-8.72-13.555-4.72-30.943,1.391
				c-17.387,6.111-89.44-6-94.55-12.167c0,0-12.277-8.722-18.723-4c-6.388,4.723-32.165,2.667-39.885,1.39
				c-7.778-1.39-14.833,8.722-24.388,5.389c-9.778-3.388-43.832-10.167-51.498-15.555c-7.833-5.444-19.443-5.444-24.442-8.109
				c-5.168-2.723-23.888-4.057-27.666,1.333c-3.89,5.389-18.055,14.777-25.166,21.554c-7.055,6.779-15.332,5.444-8.333,19.611
				c7.055,14.165-18,22.942-11.61,38.387c6.388,15.443-1.279,57.274,24.443,65.385c25.776,8.11,46.998,12.833,61.773,0.778
				c14.887-12.222,37.388-12.222,44.442,1.278c7.055,13.498,10.945,33.721,34.055,45.164c23.108,11.499,43.108,44.553,41.831,59.275
				c-1.222,14.889,0.722,64.052,24.387,92.384c23.888,28.333,48.331,79.664,50.164,67.441c1.944-12.166,1.944-24.334,7.167-15.502
				c5.055,8.779,18.609,35.779,40.498,40.5c21.943,4.721,32.888,6.055,41.163,14.225c8.334,8.109,15.5,12.775,24.445,16.887
				c9,4,30.886,16.221,35.386,24.277c4.557,8.107,2.612,18.887-1.943,31.053c-4.445,12.164-9.612,24.275-3.223,35.773
				c6.5,11.445,19.999,44.498,30.999,51.887c10.945,7.498,21.777,19.609,19.222,36.443c-2.557,16.832-14.777,88.996-13.499,105.215
				c1.333,16.113-14.723,69.389-1.89,91c12.832,21.555,34.833,28.33,44.443,25.555c9.61-2.611,1.944-3.391-2.611-13.443
				c-4.5-10.166-3.89-23.004,1.278-32.393c5.221-9.441,5.221-14.83,2.61-25.609c-2.61-10.775-1.277-16.885,5.11-24.941
				c6.5-8.107,33.498-29.664,41.887-39.109c8.278-9.441,61.164-74.219,68.218-79.607c7.056-5.389,23.11-18.221,28.333-38.387
				c5.166-20.168,23.775-59.994,10.943-70.16C-4.784,403.994-52.392,396.496-54.337,395.16z"/>
		</g>
		<g>
			<path fill="#91DC5A" d="M87.656-209.058c3.667-7.166,12.555-25.11,17.333-34.942H-98.89c2.445,10.833,11.277,51.053,9.61,67.331
				c-1.945,18.887,3.888,12.165,9,19.609c5.166,7.444,3.889,18.944,0.666,27.61c-3.278,8.776-5.166,28.388,5.222,51.33
				c10.222,22.888,22.443,51.887,32.72,53.275c10.388,1.279,7.777,16.167,14.888,10.722c7.055-5.444,8.277-17.443,14.167-35.054
				c5.777-17.442,5.777-30.331,20.61-39.108c14.833-8.778,55.94-37.054,64.941-47.22c9.054-10.166,19.332-14.166,16.109-31.665
				C85.712-184.726,82.545-198.89,87.656-209.058z"/>
		</g>
		<g>
			<path fill="#91DC5A" d="M1142.109-94.315c-7.725-5.389-53.998-42.443-73.998-37.72c-19.831,4.721-55.275-10.833-61.111-14.167
				c-5.776-3.388-53.328-17.998-78.438-18.886c-12.497-0.446-65-12.167-86.885-21.554c-21.943-9.5-40.497-55.998-82.33-48.554
				c-5.39,0.999-55.941,8.111-68.829,19.609c-12.778,11.5-18.666,24.889-25.721,27.61c-7.055,2.723-27.667,1.335-27.667,11.5
				c0,10.111,7.111,41.165-1.221,35.053c-8.391-6.056-16.774-20.221-20.556-9.389c-3.833,10.833-10.444,16.833-14.22,12.777
				c-3.778-4.055-23.222,0-25.721,6.724c-2.614,6.776-27.665,22.22-38.557,24.33c-10.94,2-15.497,7.389-21.275,10.112
				c-5.779,2.666-49.607,22.944-57.886,15.5c-8.39-7.391-10.945-2.667-16.108-1.334c0,0-15.443-2.721-25.056-14.833
				c-9.725-12.11-11.611-8.11-22.553-19.554c-10.892-11.445-13.499-22.889-24.392-18.167c-10.888,4.666-57.219,52.497-75.272,74.107
				C276.372-39.54,244.15-17.319,260.206-1.875c16.166,15.5,24.444,13.5,26.444,22.222c1.998,8.721,3.888,18.222,6.443,21.609
				c2.559,3.443,17.941,15.5,25.721-0.667c7.834-16.222,9-27.664,18-24.943c9,2.668,10.889,8.777,6.33,20.889
				c-4.499,12.221-7.666,31.053-23.109,30.332c-15.389-0.666-32.107-10.11-37.33-8.055c-5.111,2-8.225,6.722-14.111,11.443
				c-5.776,4.722-23.832,26.889-36.053,30.333c-12.167,3.388-26.943,0.61-18.609,10.722c8.332,10.11,20.554,32.388,9,31.666
				c-11.555-0.667-30.889-2.668-32.165,8.777c-1.281,11.442-6.391,18.222-3.836,26.274c2.555,8.111,10.946,23.667,21.167,18.225
				c10.445-5.447,30.331-10.725,35.442-22.945c5.167-12.167,11-25.556,23.833-24.887c12.832,0.665,43.775,17.498,41.774,23.61
				c-1.887,5.998-8.278,20.221-0.609,15.499c7.722-4.777,14.109-10.165,18.608-12.166c4.501-2.055,10.445,6.778,12.275,10.166
				c1.893,3.446,14.836,10.112,17.338-0.777c2.607-10.722,5.162-2.61,12.828,0.777c7.779,3.446,30.891,6.001,34.001,8.724
				c3.333,2.721,10.388,10.777,1.332,21.609c-9,10.721-19.332,14.887-34.107,6.777c-14.831-8.109-30.944,6.777-47.5-1.389
				c-16.831-8.054-9.052-19.499-28.998-27.61c-19.835-8.111-64.94,2.001-79.163,6.057c-14.166,4-14.775,5.388-20.554,12.11
				c-5.777,6.778-43.72,50.554-43.72,75.497c0,24.889,14.109,92.439,59.774,85.662c45.72-6.777,73.386-2.777,68.274,10.666
				c-5.223,13.557-2.555,16.943,5.779,32.387c8.329,15.5,27.718,118.715,30.887,135.494c3.333,16.889-2.499,38.387,18.721,35.055
				c21.333-3.389,43.776-8.725,52.72-28.281c9.056-19.609,10.443-41.771,21.998-53.217c11.612-11.498,25.723-11.498,26.943-27.664
				c1.22-16.221-3.219-54.607,4.5-63.498c7.779-8.666,43.722-49.219,47.555-65.389c3.889-16.16,8.999-20.219-5.777-20.219
				c-14.778,0-39.887-1.943-47.056-15.443c-7.054-13.332-23.831-38.941-23.831-44.996c0-6,10.332-5.391,15.389,7.387
				c5.224,12.779,23.108,51.33,43.721,43.105c20.609-8.105,49.607-17.496,50.219-30.326c0.611-12.779-9.001-27.611-19.333-26.889
				c-10.387,0.723-21.275-6.778-21.275-14.167c0-7.388,1.888-4.667,14.164,0c12.278,4.723,16.055,12.778,34.775,14.167
				c18.669,1.332,39.891,19.555,50.11,27.666c10.334,8.109,28.277,63.438,32.831,68.773c4.445,5.445,9.777,5.445,14.225-5.389
				c4.498-10.832,23.773-45.164,34.774-54.664c10.888-9.441,11.556-22.221,17.887-14.109c6.443,8.107,34.111,28.273,36.057,40.443
				c1.94,12.164-1.278,38.443,4.496,30.328c5.779-8.107,10.334-24.887,15.334-17.441c5.222,7.441,5.222,18.891,17.39,10.113
				c12.275-8.67,33.497-12.113,21.943-31c-11.556-18.889-3.833-30.33,3.332-31.055c7.055-0.725,55.331-9.443,56.608-35.777
				c1.277-26.274-16.778-40.44-8.222-53.939c8.222-13.501,20.497-25.611,23.11-17.557c2.557,8.112-6.446,34.388,5.111,30.333
				c11.609-4,25.107-4,25.107-12.167s-2.607-28.389,2.613-33.72c5.166-5.387,43.053-41.054,47.555-55.22
				c4.499-14.222,12.883-26.331,5.777-37.054c-7.114-10.777-19.279-7.499-9.669-20.888c9.669-13.499,25.776-25.998,37.997-26.998
				c39.057-3.444,28.053,44.887,28.723,55.664c0.725,10.777,0.725,37.775,6.442,24.277c5.777-13.445,12.5-30.055,24.109-41.499
				c11.612-11.387,18.001-18.889,18.722-28.943c0.666-10.111,1.168-13.5,12.224-18.889c10.943-5.443,59.161-24.332,63.663-37.054
				c4.499-12.775-5.78-24.33,5.777-23.552c11.553,0.611,22.499,13.387,28.335,6.667c5.776-6.667,18.664-18.833,17.994-25.61
				C1168.607-73.426,1149.941-88.927,1142.109-94.315z"/>
		</g>
		<g>
			<path fill="#91DC5A" d="M934.395,132.174c-3.889,8.832-5.777,10.222-11.555,28.443c-5.887,18.111-3.943,13.387-9.778,24.831
				c-5.776,11.502-15.328,12.779-24.996,20.278c-9.779,7.443-12.335,22.222-12.335,22.222
				c-8.331,11.443,34.109-16.223,48.888-24.944c14.834-8.777,10.999-18.888,12.275-33.054c1.278-14.221,5.276-16.22,11.555-22.277
				c6.392-6.053,1.277-18.221-1.774-26.943C943.338,112.008,938.172,123.508,934.395,132.174z"/>
		</g>
		<g>
			<path fill="#91DC5A" d="M802.458,438.381c4.496-3.445,1.22-10.777,8.278-9.5c7.109,1.334,13.497,5.5,21.998,0.779
				c8.276-4.779,15.387-2.777,14.109-10.832c-1.223-8.059,0-18.834-1.889-25.557c-1.945-6.773-13.498-8.834-21.889-1.332
				c-8.388,7.5-19.887,18.941-19.887,14.83c0-3.996,5.056-14.83,2.501-21.553c-2.501-6.721,1.276-12.777-11.555-7.445
				c-12.89,5.445-19.944,4.057-24.443,11.502c-4.447,7.496-9.668,20.219-17.333,12.164c-7.667-8.053-30.276-24.887-30.276-24.887
				c-1.834-2.055-27.555-22.998-18.557-8.779c8.946,14.168,22.5,38.443,28.944,47.168c6.331,8.777,13.444,18.941,21.219,14.221
				c7.723-4.779,9-6.059,19.335,0C783.069,434.992,797.959,441.77,802.458,438.381z"/>
		</g>
		<g>
			<path fill="#91DC5A" d="M960.115,419.439c-12.33-5.395-7.167-10.113-21.999-12.723c-14.834-2.613-26.939,0-30.942-2.67
				c-3.888-2.719-23.11-9.441-20.555,0c2.613,9.504,19.943,12.111,24.445,14.781c4.5,2.719-6.446,8.832,1.831,13.5
				c8.333,4.664,14.224,13.496,25.11,10.777c10.942-2.779,14.831,3.387,23.723,4.721c9.054,1.273,18.052-1.334,14.329-5.5
				c-3.885-3.945-6.388-9.445-5.776-14.109C970.947,423.494,972.283,424.881,960.115,419.439z"/>
		</g>
		<g>
			<path fill="#91DC5A" d="M953.672,479.49c-4.499-13.5-15.445-38.33-17.941-26.279c-2.614,12.111-19.945,20.838-26.502,20.168
				c-5.887-0.666-2.555-6.721-2.555-12.221c0-5.389-3.388-10.723-18.056-6.666c-14.89,3.996-17.941,18.164-21.944,16.887
				c-3.774-1.334-14.161-4.055-20.497,3.391c-6.442,7.443-12.333,21.611-19.944,24.33c-7.776,2.723-33.553,5.998-33.553,16.891
				c0,10.777,6.499,26.941,5.832,35.717c-0.663,8.779-12.386,28.945,3.222,35.111c9.003,3.498,15.39,4,25.836-1.332
				c10.276-5.393,54.608-19.555,60.496-14.887c5.776,4.721,15.109,15.773,19.278,18.164c8.163,4.889,10.387,16.166,21.332,18.889
				c10.776,2.723,19.274,3.996,23.719,3.996c4.555,0,20.556-5.385,24.441-14.832c3.891-9.498,10.944-31.721,14.167-42.496
				c3.391-10.777,6.388-22.885-3.223-32.389C978.172,512.543,958.172,492.99,953.672,479.49z"/>
		</g>
	</g>
</g>
</svg>
