<?xml version="1.0" encoding="utf-8"?>
<!-- Generator: Adobe Illustrator 16.0.0, SVG Export Plug-In . SVG Version: 6.00 Build 0)  -->
<!DOCTYPE svg PUBLIC "-//W3C//DTD SVG 1.1//EN" "http://www.w3.org/Graphics/SVG/1.1/DTD/svg11.dtd">
<svg version="1.1" id="Layer_1" xmlns="http://www.w3.org/2000/svg" xmlns:xlink="http://www.w3.org/1999/xlink" x="0px" y="0px"
	 width="2000px" height="1000px" viewBox="0 0 2000 1000" enable-background="new 0 0 2000 1000" xml:space="preserve">
<rect fill="#B78248" width="2000" height="1000"/>
<g>
	<path fill="#875E36" d="M907.082,129.943c0,6.323-5.127,11.449-11.449,11.449H733.919c-6.323,0-11.449-5.126-11.449-11.449v-1.43
		c0-6.323,5.126-11.449,11.449-11.449h161.713c6.322,0,11.449,5.126,11.449,11.449V129.943z"/>
	<path fill="#875E36" d="M1152.891,158.338c0,13.202-10.701,23.904-23.902,23.904H791.371c-13.202,0-23.904-10.702-23.904-23.904
		v-2.985c0-13.201,10.702-23.903,23.904-23.903h337.617c13.201,0,23.902,10.702,23.902,23.903V158.338z"/>
</g>
<g>
	<path fill="#875E36" d="M661.697,669.446c0,18.353-14.879,33.231-33.232,33.231H159.092c-18.354,0-33.232-14.879-33.232-33.231
		v-4.15c0-18.353,14.878-33.231,33.232-33.231h469.373c18.354,0,33.232,14.879,33.232,33.231V669.446z"/>
	<path fill="#875E36" d="M506.603,622.598c0,9.123-7.395,16.518-16.518,16.518H256.791c-9.122,0-16.517-7.395-16.517-16.518v-2.063
		c0-9.122,7.395-16.518,16.517-16.518h233.295c9.123,0,16.518,7.396,16.518,16.518V622.598z"/>
	<path fill="#875E36" d="M617.203,712.856c0,9.123-7.396,16.518-16.518,16.518H367.391c-9.123,0-16.518-7.395-16.518-16.518v-2.063
		c0-9.122,7.395-16.518,16.518-16.518h233.295c9.121,0,16.518,7.396,16.518,16.518V712.856z"/>
</g>
<g>
	<path fill="#875E36" d="M1945.697,637.665c0,18.353-14.879,33.231-33.232,33.231h-469.373c-18.354,0-33.232-14.879-33.232-33.231
		v-4.15c0-18.353,14.879-33.231,33.232-33.231h469.373c18.354,0,33.232,14.879,33.232,33.231V637.665z"/>
	<path fill="#875E36" d="M1570.604,590.816c0,9.123-7.395,16.518-16.518,16.518h-233.295c-9.123,0-16.518-7.395-16.518-16.518
		v-2.063c0-9.122,7.395-16.518,16.518-16.518h233.295c9.123,0,16.518,7.396,16.518,16.518V590.816z"/>
</g>
<path fill="#563A22" d="M381.362,130.218c0,8.752-7.096,15.846-15.846,15.846H141.706c-8.752,0-15.846-7.094-15.846-15.846v-1.979
	c0-8.751,7.094-15.846,15.846-15.846h223.811c8.75,0,15.846,7.094,15.846,15.846V130.218z"/>
<path fill="#563A22" d="M611.79,471.632c0,8.752-7.096,15.846-15.846,15.846H372.133c-8.752,0-15.846-7.094-15.846-15.846v-1.979
	c0-8.751,7.094-15.846,15.846-15.846h223.811c8.75,0,15.846,7.094,15.846,15.846V471.632z"/>
<path fill="#563A22" d="M805.79,373.154c0,8.752-7.096,15.846-15.846,15.846H566.133c-8.752,0-15.846-7.094-15.846-15.846v-1.979
	c0-8.751,7.094-15.846,15.846-15.846h223.811c8.75,0,15.846,7.094,15.846,15.846V373.154z"/>
<path fill="#563A22" d="M419.857,843.295c0,8.752-7.096,15.846-15.846,15.846H180.201c-8.752,0-15.846-7.094-15.846-15.846v-1.979
	c0-8.752,7.094-15.846,15.846-15.846h223.811c8.75,0,15.846,7.094,15.846,15.846V843.295z"/>
<path fill="#563A22" d="M895.218,931.154c0,8.752-7.096,15.846-15.846,15.846H655.562c-8.752,0-15.846-7.094-15.846-15.846v-1.979
	c0-8.752,7.094-15.846,15.846-15.846h223.811c8.75,0,15.846,7.094,15.846,15.846V931.154z"/>
<path fill="#563A22" d="M1034.832,667.685c0,8.752-7.096,15.846-15.846,15.846h-223.81c-8.752,0-15.846-7.094-15.846-15.846v-1.979
	c0-8.752,7.094-15.846,15.846-15.846h223.81c8.75,0,15.846,7.094,15.846,15.846V667.685z"/>
<path fill="#563A22" d="M1268.931,329.154c0,8.752-7.096,15.846-15.846,15.846h-223.81c-8.752,0-15.846-7.094-15.846-15.846v-1.979
	c0-8.752,7.094-15.846,15.846-15.846h223.81c8.75,0,15.846,7.094,15.846,15.846V329.154z"/>
<path fill="#563A22" d="M1684.931,118.053c0,8.752-7.096,15.846-15.846,15.846h-223.81c-8.752,0-15.846-7.094-15.846-15.846v-1.979
	c0-8.752,7.094-15.846,15.846-15.846h223.81c8.75,0,15.846,7.094,15.846,15.846V118.053z"/>
<path fill="#563A22" d="M1830.931,419.154c0,8.752-7.096,15.846-15.846,15.846h-223.81c-8.752,0-15.846-7.094-15.846-15.846v-1.979
	c0-8.752,7.094-15.846,15.846-15.846h223.81c8.75,0,15.846,7.094,15.846,15.846V419.154z"/>
<path fill="#563A22" d="M1805.528,814.765c0,8.752-7.096,15.846-15.846,15.846h-223.81c-8.752,0-15.846-7.094-15.846-15.846v-1.979
	c0-8.752,7.094-15.846,15.846-15.846h223.81c8.75,0,15.846,7.094,15.846,15.846V814.765z"/>
<path fill="#875E36" d="M1286.178,865.571c0,11.424-9.262,20.684-20.683,20.684H973.363c-11.424,0-20.684-9.26-20.684-20.684v-2.583
	c0-11.423,9.26-20.683,20.684-20.683h292.132c11.421,0,20.683,9.26,20.683,20.683V865.571z"/>
<path fill="#875E36" d="M1482.067,491.189c0,18.353-14.879,33.231-33.232,33.231H979.462c-18.354,0-33.232-14.879-33.232-33.231
	v-4.15c0-18.353,14.878-33.231,33.232-33.231h469.373c18.354,0,33.232,14.879,33.232,33.231V491.189z"/>
<path fill="#875E36" d="M700.192,219.624c0,18.353-14.879,33.231-33.232,33.231H197.587c-18.354,0-33.232-14.879-33.232-33.231
	v-4.15c0-18.353,14.878-33.231,33.232-33.231H666.96c18.354,0,33.232,14.879,33.232,33.231V219.624z"/>
<path fill="#875E36" d="M1945.696,932.24c0,18.353-14.879,33.231-33.232,33.231h-469.373c-18.354,0-33.231-14.879-33.231-33.231
	v-4.15c0-18.353,14.877-33.231,33.231-33.231h469.373c18.354,0,33.232,14.879,33.232,33.231V932.24z"/>
<path fill="#875E36" d="M1903.802,219.624c0,18.353-14.879,33.231-33.232,33.231h-469.373c-18.354,0-33.231-14.879-33.231-33.231
	v-4.15c0-18.353,14.877-33.231,33.231-33.231h469.373c18.354,0,33.232,14.879,33.232,33.231V219.624z"/>
</svg>
